<svg width="36" height="37" viewBox="0 0 36 37" fill="none" xmlns="http://www.w3.org/2000/svg">
<g clip-path="url(#clip0_47_4261)">
<path d="M27.8247 20.0629C27.831 21.616 28.2918 23.1334 29.1502 24.4278C30.0087 25.7222 31.2272 26.737 32.6556 27.347C32.0763 29.165 31.2373 30.8897 30.1646 32.4677C28.6635 34.6599 27.1048 36.845 24.6533 36.89C22.2415 36.935 21.4675 35.4609 18.7137 35.4609C15.9581 35.4609 15.0959 36.845 12.8191 36.9368C10.4504 37.025 8.64874 34.5645 7.13504 32.3795C4.03924 27.9086 1.67779 19.7497 4.84919 14.242C5.59402 12.9097 6.67189 11.7935 7.97739 11.0025C9.28289 10.2116 10.7713 9.77303 12.2971 9.72972C14.6226 9.68473 16.8148 11.2938 18.2367 11.2938C19.6568 11.2938 22.3225 9.35895 25.1267 9.64333C26.4261 9.6885 27.6973 10.0345 28.8404 10.6541C29.9835 11.2738 30.9672 12.1501 31.7143 13.2143C30.5395 13.9334 29.5665 14.939 28.8865 16.1368C28.2065 17.3347 27.84 18.6856 27.8247 20.0629ZM23.2908 6.68612C24.6513 5.0938 25.3256 3.02739 25.1663 0.939087C23.1157 1.13807 21.219 2.11441 19.8656 3.66771C19.1895 4.41968 18.6719 5.30024 18.3438 6.25675C18.0157 7.21326 17.8838 8.22611 17.9559 9.23476C18.9823 9.25023 19.9983 9.02824 20.9247 8.58613C21.8511 8.14402 22.6627 7.49376 23.2962 6.68612H23.2908Z" fill="url(#paint0_linear_47_4261)"/>
</g>
<defs>
<linearGradient id="paint0_linear_47_4261" x1="3.3443" y1="18.9391" x2="32.6556" y2="18.9391" gradientUnits="userSpaceOnUse">
<stop stop-color="#400ED3"/>
<stop offset="1" stop-color="#5562FC"/>
</linearGradient>
<clipPath id="clip0_47_4261">
<rect width="36" height="36" fill="white" transform="translate(0 0.939087)"/>
</clipPath>
</defs>
</svg>
