<svg width="28" height="24" viewBox="0 0 28 24" fill="none" xmlns="http://www.w3.org/2000/svg">
<path d="M8.18038 8.21499C8.11359 8.14631 8.03502 8.09263 7.94916 8.05699C7.8633 8.02135 7.77183 8.00447 7.67998 8.0073C7.58812 8.01012 7.49767 8.03261 7.4138 8.07347C7.32993 8.11433 7.25428 8.17276 7.19116 8.24543C7.12805 8.31811 7.0787 8.40359 7.04595 8.49701C7.0132 8.59044 6.99768 8.68996 7.00028 8.78991C7.00288 8.88985 7.02354 8.98826 7.0611 9.07952C7.09865 9.17078 7.15235 9.25309 7.21915 9.32177L13.5155 15.7919C13.6453 15.9255 13.8173 16 13.9961 16C14.1748 16 14.3468 15.9255 14.4767 15.7919L20.7737 9.32177C20.8419 9.25355 20.8971 9.17125 20.9358 9.07966C20.9746 8.98806 20.9963 8.889 20.9996 8.78822C21.0029 8.68745 20.9877 8.58696 20.955 8.49261C20.9223 8.39825 20.8727 8.3119 20.8091 8.23859C20.7454 8.16527 20.669 8.10644 20.5843 8.06551C20.4996 8.02458 20.4083 8.00238 20.3156 8.00018C20.223 7.99799 20.1308 8.01584 20.0446 8.05272C19.9583 8.08959 19.8797 8.14475 19.8132 8.21499L13.9961 14.1919L8.18038 8.21499Z" fill="white"/>
</svg>
