<svg width="258" height="241" viewBox="0 0 258 241" fill="none" xmlns="http://www.w3.org/2000/svg">
<path d="M123.665 106.202L155.823 87.0613L123.665 34.2444L91.4299 87.2412L123.665 106.202Z" stroke="white" stroke-width="3" stroke-miterlimit="10" stroke-linecap="round" stroke-linejoin="round"/>
<path d="M123.665 115.556L155.823 96.4157L123.665 138.583L91.4299 96.5956L123.665 115.556Z" stroke="white" stroke-width="3" stroke-miterlimit="10" stroke-linecap="round" stroke-linejoin="round"/>
<mask id="mask0_47_4274" style="mask-type:luminance" maskUnits="userSpaceOnUse" x="60" y="79" width="138" height="26">
<path d="M60.8373 79.2125H197.932V104.217H60.8373V79.2125Z" fill="white"/>
</mask>
<g mask="url(#mask0_47_4274)">
<path d="M108.71 104.217C105.544 104.217 102.483 103.661 99.4728 102.548C95.1809 100.957 91.4399 98.2776 87.8225 95.6868C86.6535 94.8483 85.4441 93.983 84.2455 93.1767C76.621 88.0382 68.9966 86.6541 61.5898 89.0568L60.84 86.724C65.0809 85.348 69.4347 85.0981 73.7857 85.9769C77.7283 86.7778 81.7058 88.5139 85.6053 91.1396C86.8335 91.9673 88.0563 92.8435 89.2388 93.69C92.7245 96.1894 96.3312 98.7721 100.317 100.248C112.448 104.738 124.284 98.2104 133.241 92.0211C133.669 91.7255 134.099 91.4271 134.531 91.1288C142.363 85.6974 150.46 80.0832 160.02 79.3818C167.843 78.8066 175.223 81.6903 182.361 84.4773C187.402 86.4472 192.614 88.4843 197.894 89.253L197.545 91.6798C191.987 90.8681 186.645 88.78 181.477 86.7616C174.274 83.9505 167.472 81.2926 160.197 81.8274C151.299 82.4805 143.478 87.9011 135.915 93.1471C135.485 93.4455 135.053 93.7438 134.623 94.0421C128.358 98.3716 123.123 101.116 118.146 102.68C114.88 103.704 111.747 104.217 108.71 104.217Z" fill="#5E2590"/>
</g>
<path d="M107.56 102.072C104.732 102.072 101.929 101.634 99.2149 100.764C94.7267 99.3284 90.7546 96.7457 86.9115 94.2463C85.6699 93.4374 84.3879 92.6016 83.1167 91.8276C75.0166 86.8853 67.0965 85.813 59.5689 88.6348L58.7169 86.337C63.0115 84.7272 67.4782 84.2677 71.9905 84.9718C76.0809 85.6087 80.2519 87.2105 84.3825 89.7313C85.6833 90.5268 86.9814 91.3707 88.2391 92.1877C91.9452 94.5984 95.7775 97.0924 99.9539 98.4281C112.666 102.494 124.561 95.2192 133.505 88.4279C133.932 88.1027 134.362 87.7748 134.792 87.447C142.602 81.4968 150.675 75.3425 160.474 74.1788C168.496 73.2247 176.22 75.8477 183.694 78.3847C188.975 80.18 194.436 82.0343 199.915 82.5826L199.674 85.0228C193.92 84.445 188.324 82.545 182.912 80.7094C175.362 78.1455 168.235 75.7241 160.761 76.6137C151.621 77.6994 143.814 83.6468 136.267 89.4008C135.835 89.7287 135.405 90.0565 134.975 90.3817C128.729 95.1278 123.467 98.1943 118.42 100.033C115.248 101.188 112.109 101.86 109.097 102.029C108.583 102.056 108.07 102.072 107.56 102.072Z" fill="#2C3892"/>
<path d="M106.407 99.9841C103.896 99.9841 101.4 99.6482 98.9541 98.979C94.2698 97.6971 90.0666 95.2084 86.0004 92.8004C84.6862 92.0238 83.3263 91.2175 81.9826 90.4731C73.4121 85.7296 65.1911 84.9691 57.5451 88.2102L56.5964 85.9527C60.9475 84.1064 65.5216 83.4399 70.1979 83.9666C74.4361 84.445 78.7979 85.9124 83.1597 88.3258C84.5357 89.089 85.909 89.9033 87.2393 90.6881C91.1658 93.0128 95.2266 95.4181 99.5938 96.614C112.889 100.253 124.843 92.228 133.773 84.832C134.201 84.4773 134.628 84.1225 135.058 83.7651C142.844 77.2936 150.895 70.6044 160.933 68.9758C169.149 67.6454 177.222 70.0104 185.027 72.2975C190.55 73.9154 196.263 75.5897 201.936 75.9149L201.797 78.3632C195.847 78.0192 189.999 76.3073 184.344 74.6518C176.451 72.3378 168.993 70.1529 161.323 71.3972C151.938 72.9183 144.147 79.3925 136.611 85.6544C136.181 86.0118 135.754 86.3693 135.324 86.724C129.094 91.884 123.808 95.2729 118.688 97.388C115.474 98.7156 112.273 99.5434 109.177 99.8471C108.253 99.9385 107.328 99.9841 106.407 99.9841Z" fill="#40B93C"/>
<path d="M105.256 97.9416C103.055 97.9416 100.857 97.6917 98.6908 97.1891C93.8129 96.0604 89.3786 93.6685 85.0893 91.3546C83.7026 90.6048 82.2675 89.8308 80.8485 89.1186C71.805 84.5713 63.2829 84.1225 55.5161 87.7856L54.4787 85.5684C58.8862 83.4883 63.5705 82.6121 68.408 82.9642C72.794 83.284 77.3466 84.617 81.9396 86.9256C83.3908 87.6539 84.8421 88.4386 86.245 89.1938C90.3891 91.4325 94.6783 93.7465 99.2363 94.8C113.115 98.0115 125.128 89.2368 134.045 81.2361C134.472 80.8518 134.899 80.4675 135.327 80.0832C143.091 73.093 151.119 65.8636 161.396 63.7755C169.807 62.0662 178.225 64.1732 186.365 66.2103C192.13 67.6535 198.091 69.1451 203.96 69.2499L203.917 71.7009C197.771 71.5934 191.673 70.0669 185.774 68.5888C177.534 66.5275 169.751 64.579 161.879 66.1781C152.253 68.1346 144.475 75.1382 136.955 81.908C136.525 82.295 136.098 82.6793 135.671 83.0636C129.457 88.6402 124.147 92.3516 118.955 94.7408C115.697 96.2405 112.432 97.2241 109.255 97.6648C107.925 97.8503 106.589 97.9416 105.256 97.9416Z" fill="#F8BD0A"/>
<path d="M104.106 95.9421C102.209 95.9421 100.309 95.7594 98.422 95.3966C93.3507 94.421 88.6852 92.1259 84.1756 89.9033C82.7136 89.1831 81.2032 88.4386 79.7116 87.7587C70.1925 83.4103 61.3695 83.276 53.4843 87.361L52.3663 85.1841C56.8276 82.8728 61.6221 81.7898 66.6208 81.9645C71.1546 82.1257 75.9008 83.3243 80.7221 85.5281C82.246 86.2241 83.7725 86.974 85.2479 87.7023C89.6151 89.8523 94.1301 92.0748 98.8816 92.9913C113.343 95.7728 125.418 86.2483 134.322 77.6403C134.746 77.2291 135.171 76.8152 135.598 76.4013C143.341 68.8898 151.347 61.1256 161.86 58.5778C170.466 56.4923 179.23 58.3413 187.703 60.1285C193.71 61.3943 199.921 62.7058 205.987 62.5849L206.035 65.0359C199.687 65.1622 193.342 63.8238 187.204 62.5258C178.614 60.7144 170.503 59.0025 162.433 60.959C152.562 63.3535 144.8 70.8812 137.294 78.1643C136.867 78.5782 136.439 78.9921 136.012 79.406C129.815 85.3964 124.48 89.4276 119.218 92.0936C115.915 93.7653 112.591 94.9048 109.331 95.4826C107.597 95.789 105.853 95.9421 104.106 95.9421Z" fill="#F14624"/>
<mask id="mask1_47_4274" style="mask-type:luminance" maskUnits="userSpaceOnUse" x="50" y="52" width="159" height="43">
<path d="M50.2567 52.1036H208.15V94.0609H50.2567V52.1036Z" fill="white"/>
</mask>
<g mask="url(#mask1_47_4274)">
<path d="M102.959 93.9776C101.357 93.9776 99.7523 93.8539 98.1533 93.604C92.8885 92.7816 87.9945 90.5779 83.2592 88.4494C81.7246 87.7587 80.139 87.0465 78.5748 86.3961C68.58 82.2466 59.4533 82.4267 51.4499 86.9363L50.2567 84.7998C54.769 82.2574 59.6737 80.9674 64.8283 80.9674H64.8363C69.518 80.9674 74.4549 82.0316 79.5047 84.1306C81.1038 84.7944 82.7055 85.5146 84.2562 86.2134C88.8438 88.2747 93.5872 90.4086 98.5295 91.1826C113.577 93.5341 125.711 83.2571 134.601 74.0417C135.026 73.6009 135.45 73.1602 135.875 72.7168C143.594 64.6892 151.575 56.3875 162.331 53.3775C171.13 50.9158 180.238 52.5068 189.047 54.0467C195.296 55.1378 201.756 56.2666 208.018 55.9226L208.15 58.3709C201.611 58.7283 195.011 57.5781 188.628 56.4628C179.695 54.9013 171.256 53.4259 162.984 55.7398C152.871 58.5698 145.123 66.6269 137.63 74.4206C137.203 74.8641 136.778 75.3075 136.351 75.7483C130.172 82.1526 124.811 86.5063 119.479 89.4438C116.133 91.2874 112.744 92.5855 109.403 93.2976C107.275 93.7518 105.119 93.9776 102.959 93.9776Z" fill="#ED1C24"/>
</g>
<path d="M60.9633 172.365C59.5013 172.365 58.1898 172.129 57.0288 171.656C55.8732 171.177 54.9487 170.47 54.2553 169.538C53.5673 168.608 53.2018 167.49 53.1588 166.184H58.3511C58.4209 166.923 58.6763 167.49 59.1143 167.882C59.5497 168.269 60.1194 168.463 60.8236 168.463C61.5465 168.463 62.1163 168.299 62.5328 167.968C62.9467 167.632 63.1563 167.17 63.1563 166.582C63.1563 166.087 62.9897 165.679 62.6618 165.356C62.3313 165.034 61.9228 164.77 61.4363 164.561C60.9553 164.346 60.2673 164.106 59.3723 163.84C58.0823 163.448 57.0288 163.05 56.2118 162.647C55.3948 162.247 54.6907 161.658 54.1048 160.884C53.5163 160.105 53.2233 159.086 53.2233 157.831C53.2233 155.969 53.8952 154.509 55.2443 153.456C56.5908 152.402 58.3457 151.876 60.5118 151.876C62.7102 151.876 64.4839 152.402 65.8331 153.456C67.1876 154.509 67.9105 155.979 68.0046 157.863H62.7371C62.6941 157.218 62.4522 156.71 62.0168 156.337C61.5788 155.966 61.0198 155.778 60.3398 155.778C59.7513 155.778 59.2756 155.936 58.9101 156.251C58.5499 156.568 58.3726 157.02 58.3726 157.605C58.3726 158.25 58.6763 158.756 59.2863 159.121C59.8937 159.481 60.8451 159.868 62.1351 160.282C63.4251 160.72 64.4705 161.139 65.2741 161.54C66.083 161.935 66.7818 162.513 67.3703 163.271C67.9643 164.031 68.2626 165.009 68.2626 166.205C68.2626 167.345 67.9723 168.382 67.3918 169.312C66.8113 170.245 65.9674 170.986 64.8656 171.537C63.7691 172.091 62.4683 172.365 60.9633 172.365Z" fill="white"/>
<path d="M86.4919 158.605C86.4919 159.761 86.2259 160.817 85.6964 161.776C85.1643 162.739 84.3473 163.513 83.2454 164.098C82.1409 164.687 80.7729 164.98 79.1389 164.98H76.1182V172.161H71.2484V152.166H79.1389C80.7353 152.166 82.0844 152.443 83.1809 152.994C84.2828 153.539 85.1105 154.3 85.6642 155.273C86.2151 156.24 86.4919 157.353 86.4919 158.605ZM78.7734 161.11C79.7033 161.11 80.3967 160.892 80.8482 160.454C81.305 160.019 81.5362 159.401 81.5362 158.605C81.5362 157.804 81.305 157.183 80.8482 156.745C80.3967 156.31 79.7033 156.09 78.7734 156.09H76.1182V161.11H78.7734Z" fill="white"/>
<path d="M93.8945 156.068V160.11H100.42V163.873H93.8945V168.259H101.28V172.161H89.0247V152.166H101.28V156.068H93.8945Z" fill="white"/>
<path d="M103.609 162.131C103.609 160.161 104.033 158.401 104.888 156.853C105.748 155.305 106.941 154.101 108.468 153.241C110 152.376 111.736 151.94 113.671 151.94C116.041 151.94 118.073 152.569 119.766 153.821C121.456 155.068 122.585 156.775 123.152 158.938H117.799C117.396 158.108 116.831 157.474 116.1 157.036C115.369 156.6 114.542 156.38 113.617 156.38C112.112 156.38 110.892 156.904 109.962 157.949C109.038 158.989 108.575 160.384 108.575 162.131C108.575 163.881 109.038 165.278 109.962 166.324C110.892 167.372 112.112 167.893 113.617 167.893C114.542 167.893 115.369 167.675 116.1 167.237C116.831 166.802 117.396 166.162 117.799 165.324H123.152C122.585 167.49 121.456 169.194 119.766 170.441C118.073 171.683 116.041 172.301 113.671 172.301C111.736 172.301 110 171.871 108.468 171.011C106.941 170.145 105.748 168.944 104.888 167.409C104.033 165.869 103.609 164.109 103.609 162.131Z" fill="white"/>
<path d="M140.538 152.166V156.068H135.239V172.161H130.358V156.068H125.069V152.166H140.538Z" fill="white"/>
<path d="M153.182 172.161L149.022 164.614H147.85V172.161H142.98V152.166H151.161C152.736 152.166 154.08 152.443 155.192 152.994C156.302 153.539 157.133 154.292 157.686 155.251C158.237 156.213 158.514 157.28 158.514 158.455C158.514 159.788 158.138 160.978 157.385 162.024C156.633 163.064 155.526 163.803 154.064 164.238L158.675 172.161H153.182ZM147.85 161.164H150.871C151.766 161.164 152.435 160.946 152.881 160.508C153.325 160.073 153.548 159.454 153.548 158.659C153.548 157.901 153.325 157.302 152.881 156.864C152.435 156.428 151.766 156.208 150.871 156.208H147.85V161.164Z" fill="white"/>
<path d="M166.338 152.166V164.131C166.338 165.329 166.631 166.248 167.22 166.893C167.813 167.538 168.682 167.861 169.821 167.861C170.961 167.861 171.831 167.538 172.433 166.893C173.041 166.248 173.347 165.329 173.347 164.131V152.166H178.228V164.098C178.228 165.883 177.846 167.396 177.088 168.635C176.327 169.868 175.306 170.801 174.024 171.43C172.74 172.053 171.31 172.365 169.735 172.365C168.157 172.365 166.747 172.059 165.5 171.441C164.258 170.817 163.277 169.887 162.554 168.646C161.828 167.399 161.468 165.883 161.468 164.098V152.166H166.338Z" fill="white"/>
<path d="M204.288 152.166V172.161H199.418V160.164L194.946 172.161H191.012L186.508 160.142V172.161H181.638V152.166H187.4L193.011 166.012L198.558 152.166H204.288Z" fill="white"/>
<path d="M54.1065 179.662V185.155C54.1065 185.701 54.2382 186.123 54.5043 186.424C54.7757 186.719 55.1735 186.865 55.6975 186.865C56.2189 186.865 56.622 186.719 56.9015 186.424C57.181 186.123 57.3208 185.701 57.3208 185.155V179.662H59.5568V185.145C59.5568 185.962 59.3794 186.655 59.03 187.219C58.686 187.786 58.2184 188.216 57.6325 188.509C57.044 188.797 56.3882 188.939 55.6653 188.939C54.9397 188.939 54.292 188.797 53.7195 188.509C53.1444 188.224 52.6929 187.797 52.365 187.23C52.0345 186.658 51.8705 185.962 51.8705 185.145V179.662H54.1065Z" fill="white"/>
<path d="M65.5606 187.112H68.4846V188.843H63.3138V179.662H65.5606V187.112Z" fill="white"/>
<path d="M78.3526 179.662V181.447H75.9231V188.843H73.6871V181.447H71.2469V179.662H78.3526Z" fill="white"/>
<path d="M83.9075 179.662V188.843H81.6607V179.662H83.9075Z" fill="white"/>
<path d="M98.1127 179.662V188.843H95.8767V183.339L93.8235 188.843H92.0175L89.9535 183.317V188.843H87.7067V179.662H90.3512L92.9312 186.015L95.479 179.662H98.1127Z" fill="white"/>
<path d="M107.624 187.219H104.195L103.646 188.843H101.303L104.635 179.662H107.226L110.548 188.843H108.172L107.624 187.219ZM107.054 185.489L105.915 182.135L104.786 185.489H107.054Z" fill="white"/>
<path d="M120.346 179.662V181.447H117.916V188.843H115.68V181.447H113.24V179.662H120.346Z" fill="white"/>
<path d="M125.901 181.447V183.306H128.889V185.037H125.901V187.047H129.287V188.843H123.654V179.662H129.287V181.447H125.901Z" fill="white"/>
<path d="M141.211 188.939C140.537 188.939 139.932 188.832 139.395 188.617C138.863 188.396 138.441 188.069 138.126 187.639C137.809 187.209 137.642 186.693 137.621 186.091H140.007C140.034 186.435 140.15 186.698 140.351 186.875C140.55 187.055 140.814 187.144 141.136 187.144C141.472 187.144 141.733 187.069 141.921 186.918C142.114 186.762 142.211 186.547 142.211 186.273C142.211 186.053 142.136 185.865 141.985 185.714C141.835 185.564 141.647 185.443 141.426 185.349C141.203 185.257 140.884 185.15 140.47 185.026C139.881 184.841 139.397 184.658 139.018 184.478C138.645 184.293 138.322 184.021 138.051 183.661C137.785 183.304 137.653 182.839 137.653 182.264C137.653 181.412 137.96 180.742 138.578 180.253C139.193 179.767 139.999 179.522 140.996 179.522C142.007 179.522 142.819 179.767 143.437 180.253C144.06 180.742 144.393 181.414 144.436 182.274H142.018C142.002 181.981 141.894 181.748 141.695 181.576C141.494 181.404 141.236 181.318 140.921 181.318C140.647 181.318 140.429 181.39 140.265 181.533C140.099 181.678 140.018 181.885 140.018 182.156C140.018 182.452 140.158 182.683 140.437 182.855C140.717 183.021 141.15 183.199 141.738 183.392C142.332 183.594 142.816 183.787 143.189 183.973C143.56 184.153 143.88 184.419 144.146 184.768C144.418 185.112 144.555 185.561 144.555 186.112C144.555 186.636 144.42 187.112 144.157 187.542C143.891 187.966 143.504 188.305 142.996 188.563C142.493 188.816 141.899 188.939 141.211 188.939Z" fill="white"/>
<path d="M154.724 179.662V181.447H152.294V188.843H150.058V181.447H147.618V179.662H154.724Z" fill="white"/>
<path d="M160.235 179.662V185.155C160.235 185.701 160.367 186.123 160.633 186.424C160.905 186.719 161.302 186.865 161.826 186.865C162.348 186.865 162.751 186.719 163.03 186.424C163.31 186.123 163.45 185.701 163.45 185.155V179.662H165.686V185.145C165.686 185.962 165.508 186.655 165.159 187.219C164.815 187.786 164.347 188.216 163.761 188.509C163.173 188.797 162.517 188.939 161.794 188.939C161.069 188.939 160.421 188.797 159.848 188.509C159.273 188.224 158.822 187.797 158.494 187.23C158.163 186.658 157.999 185.962 157.999 185.145V179.662H160.235Z" fill="white"/>
<path d="M172.893 179.662C173.861 179.662 174.705 179.856 175.43 180.243C176.153 180.624 176.712 181.162 177.107 181.855C177.5 182.543 177.699 183.344 177.699 184.252C177.699 185.15 177.5 185.948 177.107 186.65C176.712 187.346 176.151 187.886 175.42 188.273C174.689 188.654 173.845 188.843 172.893 188.843H169.443V179.662H172.893ZM172.743 186.908C173.587 186.908 174.248 186.679 174.721 186.22C175.194 185.755 175.43 185.099 175.43 184.252C175.43 183.408 175.194 182.747 174.721 182.274C174.248 181.801 173.587 181.565 172.743 181.565H171.689V186.908H172.743Z" fill="white"/>
<path d="M183.388 179.662V188.843H181.142V179.662H183.388Z" fill="white"/>
<path d="M191.531 188.939C190.671 188.939 189.878 188.74 189.155 188.337C188.437 187.937 187.868 187.378 187.446 186.66C187.021 185.937 186.811 185.123 186.811 184.22C186.811 183.325 187.021 182.519 187.446 181.801C187.868 181.086 188.437 180.527 189.155 180.124C189.878 179.724 190.671 179.522 191.531 179.522C192.396 179.522 193.189 179.724 193.906 180.124C194.629 180.527 195.196 181.086 195.605 181.801C196.019 182.519 196.228 183.325 196.228 184.22C196.228 185.123 196.019 185.937 195.605 186.66C195.188 187.378 194.621 187.937 193.906 188.337C193.189 188.74 192.396 188.939 191.531 188.939ZM191.531 186.897C192.267 186.897 192.856 186.655 193.294 186.166C193.737 185.671 193.96 185.024 193.96 184.22C193.96 183.411 193.737 182.766 193.294 182.285C192.856 181.799 192.267 181.554 191.531 181.554C190.792 181.554 190.2 181.796 189.757 182.274C189.319 182.755 189.101 183.403 189.101 184.22C189.101 185.037 189.319 185.69 189.757 186.177C190.2 186.658 190.792 186.897 191.531 186.897Z" fill="white"/>
<path d="M202.991 188.939C202.317 188.939 201.712 188.832 201.174 188.617C200.642 188.396 200.22 188.069 199.906 187.639C199.589 187.209 199.422 186.693 199.401 186.091H201.787C201.814 186.435 201.93 186.698 202.131 186.875C202.33 187.055 202.593 187.144 202.916 187.144C203.252 187.144 203.513 187.069 203.701 186.918C203.894 186.762 203.991 186.547 203.991 186.273C203.991 186.053 203.916 185.865 203.765 185.714C203.615 185.564 203.427 185.443 203.206 185.349C202.983 185.257 202.663 185.15 202.249 185.026C201.661 184.841 201.177 184.658 200.798 184.478C200.425 184.293 200.102 184.021 199.831 183.661C199.565 183.304 199.433 182.839 199.433 182.264C199.433 181.412 199.739 180.742 200.357 180.253C200.973 179.767 201.779 179.522 202.776 179.522C203.787 179.522 204.598 179.767 205.216 180.253C205.84 180.742 206.173 181.414 206.216 182.274H203.797C203.781 181.981 203.674 181.748 203.475 181.576C203.273 181.404 203.015 181.318 202.701 181.318C202.427 181.318 202.209 181.39 202.045 181.533C201.879 181.678 201.798 181.885 201.798 182.156C201.798 182.452 201.938 182.683 202.217 182.855C202.497 183.021 202.929 183.199 203.518 183.392C204.112 183.594 204.596 183.787 204.969 183.973C205.34 184.153 205.66 184.419 205.926 184.768C206.197 185.112 206.334 185.561 206.334 186.112C206.334 186.636 206.2 187.112 205.937 187.542C205.671 187.966 205.284 188.305 204.776 188.563C204.273 188.816 203.679 188.939 202.991 188.939Z" fill="white"/>
<mask id="mask2_47_4274" style="mask-type:luminance" maskUnits="userSpaceOnUse" x="122" y="19" width="39" height="92">
<path d="M160.067 19.3092H122.991V110.082H160.067V19.3092Z" fill="white"/>
</mask>
<g mask="url(#mask2_47_4274)">
<path d="M123.856 106.233L156.014 87.0922L123.856 34.2754L91.6206 87.2721L123.856 106.233Z" stroke="white" stroke-width="2" stroke-miterlimit="10" stroke-linecap="round" stroke-linejoin="round"/>
</g>
</svg>
