<svg width="36" height="37" viewBox="0 0 36 37" fill="none" xmlns="http://www.w3.org/2000/svg">
<path d="M32.7083 15.5013H31.5V15.4391H18V21.4391H26.4773C25.2405 24.9318 21.9172 27.4391 18 27.4391C13.0297 27.4391 9 23.4093 9 18.4391C9 13.4688 13.0297 9.43909 18 9.43909C20.2943 9.43909 22.3815 10.3046 23.9708 11.7183L28.2135 7.47559C25.5345 4.97884 21.951 3.43909 18 3.43909C9.71625 3.43909 3 10.1553 3 18.4391C3 26.7228 9.71625 33.4391 18 33.4391C26.2838 33.4391 33 26.7228 33 18.4391C33 17.4333 32.8965 16.4516 32.7083 15.5013Z" fill="#FFC107"/>
<path d="M4.72949 11.4573L9.65774 15.0716C10.9912 11.7701 14.2207 9.43909 18 9.43909C20.2942 9.43909 22.3815 10.3046 23.9707 11.7183L28.2135 7.47559C25.5345 4.97884 21.951 3.43909 18 3.43909C12.2385 3.43909 7.24199 6.69184 4.72949 11.4573Z" fill="#FF3D00"/>
<path d="M18 33.4391C21.8745 33.4391 25.395 31.9564 28.0567 29.5451L23.4142 25.6166C21.8579 26.8009 19.9557 27.4412 18 27.4391C14.0985 27.4391 10.7857 24.9514 9.53774 21.4796L4.64624 25.2484C7.12874 30.1061 12.1702 33.4391 18 33.4391Z" fill="#4CAF50"/>
<path d="M32.7083 15.5013H31.5V15.4391H18V21.4391H26.4773C25.8857 23.1014 24.82 24.554 23.412 25.6173L23.4142 25.6158L28.0568 29.5443C27.7283 29.8428 33 25.9391 33 18.4391C33 17.4333 32.8965 16.4516 32.7083 15.5013Z" fill="#1976D2"/>
</svg>
