<svg width="101" height="24" viewBox="0 0 101 24" fill="none" xmlns="http://www.w3.org/2000/svg">
    <path
        d="M5.88784 13.2676C4.94114 13.2676 4.0919 13.1145 3.34012 12.8082C2.59181 12.4984 1.99317 12.0407 1.54419 11.4369C1.09868 10.8348 0.862011 10.1108 0.834167 9.26506H4.19632C4.24156 9.74362 4.40689 10.1108 4.69055 10.3649C4.97247 10.6155 5.3414 10.7408 5.79734 10.7408C6.26547 10.7408 6.6344 10.6346 6.90414 10.4206C7.17213 10.203 7.30787 9.90373 7.30787 9.52261C7.30787 9.20241 7.19998 8.93789 6.98767 8.72906C6.77362 8.52023 6.5091 8.34969 6.19412 8.21395C5.88261 8.07473 5.43711 7.91985 4.85761 7.74757C4.02229 7.49349 3.34012 7.23593 2.81108 6.9749C2.28205 6.7156 1.82611 6.33449 1.44673 5.8333C1.06562 5.32863 0.875933 4.66907 0.875933 3.85638C0.875933 2.65039 1.31099 1.70544 2.1846 1.02326C3.05646 0.341088 4.19284 0 5.59547 0C7.01899 0 8.16755 0.341088 9.04116 1.02326C9.91824 1.70544 10.3864 2.65735 10.4473 3.87726H7.0364C7.00855 3.4596 6.85193 3.1307 6.57001 2.8888C6.28635 2.64865 5.92438 2.52683 5.4841 2.52683C5.10298 2.52683 4.79496 2.62951 4.55829 2.83312C4.3251 3.03847 4.21024 3.33083 4.21024 3.7102C4.21024 4.12786 4.40689 4.45502 4.80192 4.6917C5.19522 4.92489 5.81126 5.17548 6.64658 5.44348C7.4819 5.72714 8.15885 5.99862 8.67919 6.25792C9.203 6.51373 9.65546 6.88788 10.0366 7.37863C10.4212 7.87112 10.6143 8.50457 10.6143 9.27898C10.6143 10.0168 10.4264 10.6886 10.0505 11.2907C9.67461 11.8946 9.12817 12.3749 8.41467 12.7316C7.70465 13.0901 6.86237 13.2676 5.88784 13.2676Z"
        fill="white" />
    <path
        d="M22.4185 4.35757C22.4185 5.10587 22.2462 5.78979 21.9033 6.41105C21.5588 7.03406 21.0297 7.53525 20.3162 7.91462C19.601 8.29574 18.7152 8.48542 17.6571 8.48542H15.7011V13.1354H12.5478V0.187943H17.6571C18.6909 0.187943 19.5645 0.367188 20.2745 0.723938C20.988 1.07721 21.524 1.5697 21.8825 2.19966C22.2392 2.82615 22.4185 3.54661 22.4185 4.35757ZM17.4205 5.97947C18.0226 5.97947 18.4716 5.83851 18.7639 5.55485C19.0598 5.27293 19.2094 4.87268 19.2094 4.35757C19.2094 3.83897 19.0598 3.43698 18.7639 3.15332C18.4716 2.8714 18.0226 2.7287 17.4205 2.7287H15.7011V5.97947H17.4205Z"
        fill="white" />
    <path
        d="M27.2119 2.71478V5.3321H31.4372V7.76844H27.2119V10.6085H31.994V13.1354H24.0585V0.187943H31.994V2.71478H27.2119Z"
        fill="white" />
    <path
        d="M33.5021 6.64077C33.5021 5.36517 33.7771 4.22531 34.3305 3.22293C34.8874 2.22055 35.66 1.44092 36.6485 0.884041C37.6404 0.323683 38.7646 0.0417633 40.0176 0.0417633C41.5525 0.0417633 42.8681 0.448981 43.9645 1.25993C45.0591 2.06741 45.79 3.17246 46.1572 4.57336H42.6906C42.4296 4.03562 42.0641 3.62493 41.5908 3.34127C41.1174 3.05935 40.5814 2.91665 39.9828 2.91665C39.0083 2.91665 38.2182 3.25599 37.6161 3.93295C37.0174 4.60642 36.7181 5.50961 36.7181 6.64077C36.7181 7.77367 37.0174 8.67859 37.6161 9.35555C38.2182 10.0342 39.0083 10.3718 39.9828 10.3718C40.5814 10.3718 41.1174 10.2309 41.5908 9.94723C42.0641 9.66531 42.4296 9.25113 42.6906 8.70818H46.1572C45.79 10.1108 45.0591 11.2141 43.9645 12.0216C42.8681 12.8256 41.5525 13.2258 40.0176 13.2258C38.7646 13.2258 37.6404 12.9474 36.6485 12.3905C35.66 11.8302 34.8874 11.0523 34.3305 10.0586C33.7771 9.06145 33.5021 7.92159 33.5021 6.64077Z"
        fill="white" />
    <path d="M57.4153 0.187943V2.71478H53.9835V13.1354H50.8232V2.71478H47.3984V0.187943H57.4153Z"
        fill="white" />
    <path
        d="M65.6025 13.1354L62.9086 8.24875H62.1498V13.1354H58.9965V0.187943H64.2938C65.3136 0.187943 66.1837 0.367188 66.9042 0.723938C67.6229 1.07721 68.1606 1.56448 68.5191 2.18574C68.8759 2.80875 69.0551 3.49963 69.0551 4.26011C69.0551 5.12327 68.8115 5.8942 68.3242 6.57116C67.837 7.24463 67.12 7.7232 66.1733 8.00512L69.1595 13.1354H65.6025ZM62.1498 6.01428H64.1059C64.6854 6.01428 65.1187 5.87332 65.4076 5.58966C65.6947 5.30774 65.8392 4.90748 65.8392 4.39237C65.8392 3.90162 65.6947 3.51355 65.4076 3.22989C65.1187 2.94797 64.6854 2.80527 64.1059 2.80527H62.1498V6.01428Z"
        fill="white" />
    <path
        d="M74.1214 0.187943V7.93551C74.1214 8.71166 74.3111 9.30682 74.6922 9.72448C75.0768 10.1421 75.6389 10.351 76.3768 10.351C77.1146 10.351 77.6785 10.1421 78.0683 9.72448C78.4616 9.30682 78.66 8.71166 78.66 7.93551V0.187943H81.8202V7.91462C81.8202 9.07015 81.5731 10.0499 81.0824 10.8522C80.5899 11.6509 79.9286 12.2548 79.0985 12.662C78.2667 13.0657 77.3409 13.2676 76.3211 13.2676C75.2995 13.2676 74.3859 13.0692 73.5784 12.669C72.7745 12.2652 72.1393 11.6631 71.6711 10.8591C71.2013 10.0516 70.9681 9.07015 70.9681 7.91462V0.187943H74.1214Z"
        fill="white" />
    <path
        d="M98.6954 0.187943V13.1354H95.5421V5.36691L92.6463 13.1354H90.0986L87.1819 5.35299V13.1354H84.0286V0.187943H87.7597L91.3933 9.15368L94.9852 0.187943H98.6954Z"
        fill="white" />
    <path
        d="M1.44788 17.9926V21.5497C1.44788 21.9029 1.53315 22.1761 1.70544 22.3711C1.8812 22.5625 2.13876 22.6565 2.47811 22.6565C2.81571 22.6565 3.07675 22.5625 3.25774 22.3711C3.43872 22.1761 3.52921 21.9029 3.52921 21.5497V17.9926H4.9771V21.5427C4.9771 22.0717 4.86224 22.5207 4.63601 22.8862C4.41326 23.2534 4.11046 23.5318 3.73108 23.7215C3.34997 23.9077 2.92535 23.9999 2.45722 23.9999C1.98736 23.9999 1.56796 23.9077 1.19729 23.7215C0.824875 23.537 0.532514 23.2603 0.320205 22.8931C0.106155 22.5225 0 22.0717 0 21.5427V17.9926H1.44788Z"
        fill="white" />
    <path d="M8.86476 22.8166H10.7581V23.9373H7.40991V17.9926H8.86476V22.8166Z" fill="white" />
    <path d="M17.148 17.9926V19.1481H15.5748V23.9373H14.127V19.1481H12.5468V17.9926H17.148Z"
        fill="white" />
    <path d="M20.7449 17.9926V23.9373H19.2901V17.9926H20.7449Z" fill="white" />
    <path
        d="M29.9433 17.9926V23.9373H28.4954V20.3733L27.1659 23.9373H25.9964L24.6599 20.3593V23.9373H23.2051V17.9926H24.9175L26.5881 22.1065L28.2379 17.9926H29.9433Z"
        fill="white" />
    <path
        d="M36.1021 22.8862H33.8816L33.5266 23.9373H32.0091L34.167 17.9926H35.8446L37.9955 23.9373H36.4572L36.1021 22.8862ZM35.7332 21.7654L34.9954 19.5936L34.2645 21.7654H35.7332Z"
        fill="white" />
    <path d="M44.3401 17.9926V19.1481H42.7669V23.9373H41.319V19.1481H39.7389V17.9926H44.3401Z"
        fill="white" />
    <path
        d="M47.937 19.1481V20.3524H49.8721V21.4731H47.937V22.7748H50.1297V23.9373H46.4821V17.9926H50.1297V19.1481H47.937Z"
        fill="white" />
    <path
        d="M57.8512 24C57.4144 24 57.0229 23.9304 56.6748 23.7912C56.3302 23.6485 56.057 23.4362 55.8534 23.1577C55.6481 22.8793 55.5402 22.5452 55.5262 22.1554H57.0716C57.089 22.3781 57.1638 22.5487 57.2943 22.6635C57.4231 22.7801 57.5937 22.8375 57.8025 22.8375C58.02 22.8375 58.1888 22.7888 58.3106 22.6914C58.4359 22.5904 58.4986 22.4512 58.4986 22.2737C58.4986 22.131 58.4499 22.0092 58.3524 21.9117C58.2549 21.8143 58.1331 21.736 57.9904 21.6751C57.846 21.6159 57.6389 21.5463 57.3709 21.4662C56.9898 21.3461 56.6765 21.2278 56.4312 21.1112C56.1893 20.9911 55.9804 20.8154 55.8047 20.5822C55.6324 20.3507 55.5471 20.0497 55.5471 19.6773C55.5471 19.1256 55.7455 18.6923 56.1458 18.3756C56.5443 18.0606 57.0664 17.9022 57.712 17.9022C58.3663 17.9022 58.8919 18.0606 59.2921 18.3756C59.6959 18.6923 59.9117 19.1273 59.9395 19.6842H58.3733C58.3628 19.4945 58.2932 19.3431 58.1645 19.2318C58.0339 19.1204 57.8669 19.0647 57.6633 19.0647C57.4858 19.0647 57.3448 19.1117 57.2386 19.2039C57.1307 19.2979 57.0785 19.4319 57.0785 19.6076C57.0785 19.7991 57.169 19.9487 57.35 20.0601C57.531 20.168 57.8112 20.2829 58.1923 20.4082C58.5769 20.5387 58.8901 20.664 59.132 20.784C59.3722 20.9006 59.5793 21.0729 59.7516 21.2992C59.9273 21.5219 60.0161 21.8125 60.0161 22.1693C60.0161 22.5086 59.9291 22.8167 59.7585 23.0951C59.5862 23.3701 59.3356 23.5893 59.0067 23.7564C58.6813 23.92 58.2967 24 57.8512 24Z"
        fill="white" />
    <path d="M66.6007 17.9926V19.1481H65.0275V23.9373H63.5796V19.1481H61.9995V17.9926H66.6007Z"
        fill="white" />
    <path
        d="M70.1697 17.9926V21.5497C70.1697 21.9029 70.255 22.1761 70.4273 22.3711C70.6031 22.5625 70.8606 22.6565 71.2 22.6565C71.5376 22.6565 71.7986 22.5625 71.9796 22.3711C72.1606 22.1761 72.2511 21.9029 72.2511 21.5497V17.9926H73.699V21.5427C73.699 22.0717 73.5841 22.5207 73.3579 22.8862C73.1351 23.2534 72.8323 23.5318 72.4529 23.7215C72.0718 23.9077 71.6472 23.9999 71.1791 23.9999C70.7092 23.9999 70.2898 23.9077 69.9192 23.7215C69.5467 23.537 69.2544 23.2603 69.0421 22.8931C68.828 22.5225 68.7219 22.0717 68.7219 21.5427V17.9926H70.1697Z"
        fill="white" />
    <path
        d="M78.3662 17.9926C78.9927 17.9926 79.5392 18.1179 80.009 18.3685C80.4772 18.6156 80.8391 18.9637 81.0949 19.4126C81.349 19.8581 81.4778 20.3767 81.4778 20.9649C81.4778 21.5462 81.349 22.063 81.0949 22.5172C80.8391 22.968 80.4754 23.3177 80.0021 23.5683C79.5287 23.8155 78.9823 23.9373 78.3662 23.9373H76.1318V17.9926H78.3662ZM78.2688 22.6843C78.8152 22.6843 79.2433 22.5364 79.5496 22.2388C79.8559 21.9377 80.009 21.5131 80.009 20.9649C80.009 20.4185 79.8559 19.9904 79.5496 19.6841C79.2433 19.3778 78.8152 19.2247 78.2688 19.2247H77.5866V22.6843H78.2688Z"
        fill="white" />
    <path d="M85.1621 17.9926V23.9373H83.7072V17.9926H85.1621Z" fill="white" />
    <path
        d="M90.4344 24C89.8775 24 89.3642 23.8712 88.896 23.6102C88.4314 23.3509 88.0625 22.9889 87.7892 22.5243C87.5143 22.0562 87.3785 21.5289 87.3785 20.9442C87.3785 20.3647 87.5143 19.8426 87.7892 19.3779C88.0625 18.915 88.4314 18.5531 88.896 18.292C89.3642 18.0327 89.8775 17.9022 90.4344 17.9022C90.9948 17.9022 91.5081 18.0327 91.9728 18.292C92.4409 18.5531 92.8081 18.915 93.0726 19.3779C93.3406 19.8426 93.4764 20.3647 93.4764 20.9442C93.4764 21.5289 93.3406 22.0562 93.0726 22.5243C92.8029 22.9889 92.4357 23.3509 91.9728 23.6102C91.5081 23.8712 90.9948 24 90.4344 24ZM90.4344 22.6774C90.9112 22.6774 91.2923 22.5208 91.576 22.2041C91.8631 21.8839 92.0076 21.4645 92.0076 20.9442C92.0076 20.4203 91.8631 20.0027 91.576 19.6912C91.2923 19.3762 90.9112 19.2178 90.4344 19.2178C89.9558 19.2178 89.573 19.3745 89.2858 19.6842C89.0022 19.9957 88.8612 20.4151 88.8612 20.9442C88.8612 21.4732 89.0022 21.8961 89.2858 22.211C89.573 22.5226 89.9558 22.6774 90.4344 22.6774Z"
        fill="white" />
    <path
        d="M97.8554 24C97.4186 24 97.0271 23.9304 96.679 23.7912C96.3344 23.6485 96.0612 23.4362 95.8576 23.1577C95.6523 22.8793 95.5444 22.5452 95.5305 22.1554H97.0758C97.0932 22.3781 97.168 22.5487 97.2985 22.6635C97.4273 22.7801 97.5979 22.8375 97.8067 22.8375C98.0242 22.8375 98.193 22.7888 98.3148 22.6914C98.4401 22.5904 98.5028 22.4512 98.5028 22.2737C98.5028 22.131 98.4541 22.0092 98.3566 21.9117C98.2592 21.8143 98.1373 21.736 97.9946 21.6751C97.8502 21.6159 97.6431 21.5463 97.3751 21.4662C96.994 21.3461 96.6808 21.2278 96.4354 21.1112C96.1935 20.9911 95.9847 20.8154 95.8089 20.5822C95.6366 20.3507 95.5513 20.0497 95.5513 19.6773C95.5513 19.1256 95.7497 18.6923 96.15 18.3756C96.5485 18.0606 97.0706 17.9022 97.7162 17.9022C98.3705 17.9022 98.8961 18.0606 99.2963 18.3756C99.7001 18.6923 99.9159 19.1273 99.9437 19.6842H98.3775C98.3671 19.4945 98.2974 19.3431 98.1687 19.2318C98.0381 19.1204 97.8711 19.0647 97.6675 19.0647C97.49 19.0647 97.349 19.1117 97.2429 19.2039C97.135 19.2979 97.0828 19.4319 97.0828 19.6076C97.0828 19.7991 97.1732 19.9487 97.3542 20.0601C97.5352 20.168 97.8154 20.2829 98.1965 20.4082C98.5811 20.5387 98.8943 20.664 99.1362 20.784C99.3764 20.9006 99.5835 21.0729 99.7558 21.2992C99.9315 21.5219 100.02 21.8125 100.02 22.1693C100.02 22.5086 99.9333 22.8167 99.7627 23.0951C99.5904 23.3701 99.3398 23.5893 99.0109 23.7564C98.6855 23.92 98.3009 24 97.8554 24Z"
        fill="white" />
</svg>