<svg width="100" height="24" viewBox="0 0 100 24" fill="none" xmlns="http://www.w3.org/2000/svg">
<path d="M5.88669 13.2649C4.94019 13.2649 4.09112 13.1118 3.33949 12.8056C2.59133 12.4959 1.99281 12.0383 1.54392 11.4346C1.09851 10.8326 0.861884 10.1088 0.834045 9.26318H4.19551C4.24075 9.74164 4.40604 10.1088 4.68964 10.3628C4.9715 10.6133 5.34036 10.7386 5.79621 10.7386C6.26424 10.7386 6.6331 10.6325 6.90278 10.4185C7.17073 10.201 7.30644 9.90172 7.30644 9.52068C7.30644 9.20054 7.19856 8.93608 6.9863 8.72729C6.77229 8.5185 6.50783 8.34799 6.19291 8.21228C5.88147 8.07309 5.43605 7.91824 4.85667 7.74599C4.02152 7.49197 3.33949 7.23446 2.81056 6.97348C2.28163 6.71424 1.82578 6.3332 1.44649 5.83211C1.06545 5.32754 0.875803 4.66813 0.875803 3.8556C0.875803 2.64985 1.31078 1.70509 2.1842 1.02306C3.05589 0.341018 4.19203 0 5.59439 0C7.01762 0 8.16594 0.341018 9.03937 1.02306C9.91627 1.70509 10.3843 2.65681 10.4452 3.87648H7.03501C7.00718 3.4589 6.85059 3.13006 6.56872 2.88822C6.28512 2.64811 5.92322 2.52632 5.48303 2.52632C5.102 2.52632 4.79404 2.62897 4.55741 2.83254C4.32427 3.03785 4.20943 3.33015 4.20943 3.70945C4.20943 4.12702 4.40604 4.45412 4.801 4.69074C5.19421 4.92389 5.81013 5.17443 6.64528 5.44238C7.48043 5.72598 8.15724 5.9974 8.67747 6.25665C9.20118 6.51241 9.65355 6.88649 10.0346 7.37713C10.4191 7.86952 10.6122 8.50284 10.6122 9.27709C10.6122 10.0148 10.4243 10.6864 10.0485 11.2884C9.67269 11.8921 9.12636 12.3724 8.41301 12.729C7.70313 13.0875 6.86102 13.2649 5.88669 13.2649Z" fill="white"/>
<path d="M22.4139 4.35676C22.4139 5.10492 22.2417 5.78869 21.8989 6.40984C21.5544 7.03272 21.0255 7.5338 20.3121 7.9131C19.597 8.29414 18.7114 8.48378 17.6536 8.48378H15.6979V13.1328H12.5453V0.187988H17.6536C18.6871 0.187988 19.5605 0.367197 20.2704 0.723874C20.9837 1.07707 21.5196 1.56946 21.878 2.1993C22.2347 2.82566 22.4139 3.54598 22.4139 4.35676ZM17.417 5.97834C18.019 5.97834 18.4678 5.83741 18.7601 5.55381C19.0559 5.27195 19.2056 4.87177 19.2056 4.35676C19.2056 3.83828 19.0559 3.43636 18.7601 3.15276C18.4678 2.8709 18.019 2.72823 17.417 2.72823H15.6979V5.97834H17.417Z" fill="white"/>
<path d="M27.2064 2.71431V5.3311H31.4308V7.76695H27.2064V10.6065H31.9876V13.1328H24.0537V0.187988H31.9876V2.71431H27.2064Z" fill="white"/>
<path d="M33.4954 6.63941C33.4954 5.36407 33.7703 4.22444 34.3236 3.22227C34.8803 2.22009 35.6529 1.44062 36.6411 0.883855C37.6329 0.32361 38.7568 0.041748 40.0095 0.041748C41.5441 0.041748 42.8595 0.448883 43.9556 1.25967C45.05 2.06698 45.7808 3.17181 46.1479 4.57242H42.682C42.421 4.0348 42.0557 3.62418 41.5824 3.34058C41.1092 3.05872 40.5733 2.91605 39.9747 2.91605C39.0004 2.91605 38.2105 3.25533 37.6085 3.93214C37.01 4.60548 36.7107 5.50848 36.7107 6.63941C36.7107 7.77208 37.01 8.67682 37.6085 9.35364C38.2105 10.0322 39.0004 10.3697 39.9747 10.3697C40.5733 10.3697 41.1092 10.2288 41.5824 9.9452C42.0557 9.66334 42.421 9.24925 42.682 8.7064H46.1479C45.7808 10.1088 45.05 11.2118 43.9556 12.0192C42.8595 12.823 41.5441 13.2232 40.0095 13.2232C38.7568 13.2232 37.6329 12.9448 36.6411 12.388C35.6529 11.8278 34.8803 11.05 34.3236 10.0566C33.7703 9.0596 33.4954 7.91997 33.4954 6.63941Z" fill="white"/>
<path d="M57.4036 0.187988V2.71431H53.9726V13.1328H50.8129V2.71431H47.3888V0.187988H57.4036Z" fill="white"/>
<path d="M65.5892 13.1328L62.8958 8.24716H62.1372V13.1328H58.9846V0.187988H64.2808C65.3004 0.187988 66.1703 0.367197 66.8906 0.723874C67.6092 1.07707 68.1468 1.56424 68.5052 2.18538C68.8619 2.80826 69.0411 3.499 69.0411 4.25933C69.0411 5.12232 68.7975 5.89309 68.3104 6.56991C67.8232 7.24324 67.1064 7.72171 66.1599 8.00357L69.1455 13.1328H65.5892ZM62.1372 6.01314H64.0929C64.6723 6.01314 65.1055 5.87221 65.3943 5.58861C65.6814 5.30675 65.8258 4.90657 65.8258 4.39156C65.8258 3.90091 65.6814 3.51292 65.3943 3.22932C65.1055 2.94745 64.6723 2.80478 64.0929 2.80478H62.1372V6.01314Z" fill="white"/>
<path d="M74.1064 0.187988V7.93398C74.1064 8.70997 74.296 9.30501 74.677 9.72259C75.0616 10.1402 75.6235 10.3489 76.3613 10.3489C77.099 10.3489 77.6627 10.1402 78.0524 9.72259C78.4456 9.30501 78.644 8.70997 78.644 7.93398V0.187988H81.8036V7.9131C81.8036 9.06839 81.5566 10.0479 81.0659 10.85C80.5735 11.6486 79.9124 12.2524 79.0824 12.6595C78.2508 13.0632 77.3252 13.265 76.3056 13.265C75.2843 13.265 74.3708 13.0667 73.5635 12.6665C72.7597 12.2628 72.1246 11.6608 71.6566 10.857C71.1868 10.0497 70.9537 9.06839 70.9537 7.9131V0.187988H74.1064Z" fill="white"/>
<path d="M98.6754 0.187988V13.1328H95.5227V5.3659L92.6275 13.1328H90.0803L87.1643 5.35198V13.1328H84.0116V0.187988H87.7419L91.3748 9.1519L94.9659 0.187988H98.6754Z" fill="white"/>
<path d="M1.44759 17.989V21.5453C1.44759 21.8985 1.53284 22.1717 1.70509 22.3666C1.88082 22.558 2.13832 22.6519 2.4776 22.6519C2.81514 22.6519 3.07613 22.558 3.25707 22.3666C3.43802 22.1717 3.5285 21.8985 3.5285 21.5453V17.989H4.97609V21.5384C4.97609 22.0673 4.86125 22.5162 4.63507 22.8816C4.41236 23.2487 4.10962 23.5271 3.73032 23.7167C3.34929 23.9029 2.92476 23.9951 2.45673 23.9951C1.98695 23.9951 1.56764 23.9029 1.19704 23.7167C0.824708 23.5323 0.532406 23.2557 0.32014 22.8885C0.106133 22.5179 0 22.0673 0 21.5384V17.989H1.44759Z" fill="white"/>
<path d="M8.86297 22.812H10.756V23.9325H7.40842V17.989H8.86297V22.812Z" fill="white"/>
<path d="M17.1446 17.989V19.1443H15.5717V23.9325H14.1241V19.1443H12.5443V17.989H17.1446Z" fill="white"/>
<path d="M20.7408 17.989V23.9325H19.2862V17.989H20.7408Z" fill="white"/>
<path d="M29.9372 17.989V23.9325H28.4896V20.3692L27.1604 23.9325H25.9912L24.6549 20.3553V23.9325H23.2004V17.989H24.9124L26.5827 22.1021L28.2321 17.989H29.9372Z" fill="white"/>
<path d="M36.0948 22.8816H33.8747L33.5198 23.9325H32.0026L34.1601 17.989H35.8373L37.9878 23.9325H36.4498L36.0948 22.8816ZM35.726 21.7611L34.9883 19.5897L34.2575 21.7611H35.726Z" fill="white"/>
<path d="M44.331 17.989V19.1443H42.7582V23.9325H41.3106V19.1443H39.7308V17.989H44.331Z" fill="white"/>
<path d="M47.9273 19.1443V20.3483H49.862V21.4688H47.9273V22.7702H50.1195V23.9325H46.4727V17.989H50.1195V19.1443H47.9273Z" fill="white"/>
<path d="M57.8394 23.9948C57.4027 23.9948 57.0113 23.9252 56.6633 23.786C56.3188 23.6433 56.0456 23.431 55.8421 23.1527C55.6367 22.8743 55.5289 22.5402 55.515 22.1505H57.06C57.0774 22.3732 57.1522 22.5437 57.2827 22.6585C57.4114 22.7751 57.5819 22.8325 57.7907 22.8325C58.0082 22.8325 58.177 22.7838 58.2988 22.6864C58.424 22.5855 58.4867 22.4463 58.4867 22.2688C58.4867 22.1261 58.438 22.0043 58.3405 21.9069C58.2431 21.8095 58.1213 21.7312 57.9786 21.6703C57.8342 21.6111 57.6272 21.5415 57.3592 21.4615C56.9782 21.3414 56.665 21.2231 56.4197 21.1066C56.1779 20.9865 55.9691 20.8108 55.7933 20.5776C55.6211 20.3462 55.5358 20.0452 55.5358 19.6729C55.5358 19.1213 55.7342 18.6881 56.1344 18.3714C56.5328 18.0565 57.0548 17.8982 57.7003 17.8982C58.3545 17.8982 58.8799 18.0565 59.2801 18.3714C59.6837 18.6881 59.8995 19.1231 59.9273 19.6798H58.3614C58.351 19.4902 58.2814 19.3388 58.1526 19.2275C58.0221 19.1161 57.8551 19.0604 57.6515 19.0604C57.4741 19.0604 57.3331 19.1074 57.227 19.1996C57.1191 19.2936 57.0669 19.4276 57.0669 19.6033C57.0669 19.7947 57.1574 19.9443 57.3384 20.0557C57.5193 20.1635 57.7994 20.2784 58.1805 20.4036C58.565 20.5341 58.8782 20.6594 59.12 20.7795C59.3601 20.896 59.5672 21.0683 59.7394 21.2945C59.9151 21.5172 60.0039 21.8077 60.0039 22.1644C60.0039 22.5037 59.9169 22.8116 59.7464 23.09C59.5741 23.3649 59.3236 23.5842 58.9947 23.7512C58.6694 23.9147 58.2849 23.9948 57.8394 23.9948Z" fill="white"/>
<path d="M66.5871 17.989V19.1443H65.0143V23.9325H63.5667V19.1443H61.9869V17.989H66.5871Z" fill="white"/>
<path d="M70.1555 17.989V21.5453C70.1555 21.8985 70.2407 22.1717 70.413 22.3666C70.5887 22.558 70.8462 22.6519 71.1855 22.6519C71.523 22.6519 71.784 22.558 71.965 22.3666C72.1459 22.1717 72.2364 21.8985 72.2364 21.5453V17.989H73.684V21.5384C73.684 22.0673 73.5691 22.5162 73.343 22.8816C73.1202 23.2487 72.8175 23.5271 72.4382 23.7167C72.0572 23.9029 71.6326 23.9951 71.1646 23.9951C70.6948 23.9951 70.2755 23.9029 69.9049 23.7167C69.5326 23.5323 69.2403 23.2557 69.028 22.8885C68.814 22.5179 68.7079 22.0673 68.7079 21.5384V17.989H70.1555Z" fill="white"/>
<path d="M78.3504 17.989C78.9767 17.989 79.523 18.1143 79.9928 18.3648C80.4608 18.6119 80.8227 18.9599 81.0785 19.4088C81.3325 19.8542 81.4613 20.3727 81.4613 20.9607C81.4613 21.5419 81.3325 22.0586 81.0785 22.5127C80.8227 22.9634 80.4591 23.3131 79.9858 23.5636C79.5126 23.8107 78.9663 23.9325 78.3504 23.9325H76.1163V17.989H78.3504ZM78.2529 22.6798C78.7992 22.6798 79.2273 22.5319 79.5335 22.2343C79.8397 21.9333 79.9928 21.5088 79.9928 20.9607C79.9928 20.4144 79.8397 19.9864 79.5335 19.6802C79.2273 19.374 78.7992 19.2209 78.2529 19.2209H77.5709V22.6798H78.2529Z" fill="white"/>
<path d="M85.1447 17.989V23.9325H83.6902V17.989H85.1447Z" fill="white"/>
<path d="M90.4161 23.9948C89.8593 23.9948 89.3461 23.866 88.878 23.605C88.4135 23.3458 88.0446 22.9839 87.7715 22.5193C87.4966 22.0513 87.3608 21.5241 87.3608 20.9395C87.3608 20.3601 87.4966 19.8382 87.7715 19.3736C88.0446 18.9108 88.4135 18.5489 88.878 18.2879C89.3461 18.0287 89.8593 17.8982 90.4161 17.8982C90.9763 17.8982 91.4896 18.0287 91.9541 18.2879C92.4222 18.5489 92.7893 18.9108 93.0538 19.3736C93.3217 19.8382 93.4574 20.3601 93.4574 20.9395C93.4574 21.5241 93.3217 22.0513 93.0538 22.5193C92.7841 22.9839 92.417 23.3458 91.9541 23.605C91.4896 23.866 90.9763 23.9948 90.4161 23.9948ZM90.4161 22.6725C90.8928 22.6725 91.2739 22.5159 91.5575 22.1992C91.8445 21.8791 91.9889 21.4597 91.9889 20.9395C91.9889 20.4158 91.8445 19.9982 91.5575 19.6868C91.2739 19.3719 90.8928 19.2136 90.4161 19.2136C89.9376 19.2136 89.5548 19.3701 89.2678 19.6798C88.9842 19.9913 88.8432 20.4106 88.8432 20.9395C88.8432 21.4684 88.9842 21.8912 89.2678 22.2062C89.5548 22.5176 89.9376 22.6725 90.4161 22.6725Z" fill="white"/>
<path d="M97.8356 23.9948C97.3989 23.9948 97.0074 23.9252 96.6594 23.786C96.3149 23.6433 96.0418 23.431 95.8382 23.1527C95.6329 22.8743 95.525 22.5402 95.5111 22.1505H97.0561C97.0735 22.3732 97.1483 22.5437 97.2788 22.6585C97.4076 22.7751 97.5781 22.8325 97.7869 22.8325C98.0044 22.8325 98.1731 22.7838 98.2949 22.6864C98.4202 22.5855 98.4828 22.4463 98.4828 22.2688C98.4828 22.1261 98.4341 22.0043 98.3367 21.9069C98.2393 21.8095 98.1175 21.7312 97.9748 21.6703C97.8304 21.6111 97.6233 21.5415 97.3554 21.4615C96.9744 21.3414 96.6612 21.2231 96.4159 21.1066C96.174 20.9865 95.9652 20.8108 95.7895 20.5776C95.6172 20.3462 95.532 20.0452 95.532 19.6729C95.532 19.1213 95.7303 18.6881 96.1305 18.3714C96.5289 18.0565 97.0509 17.8982 97.6964 17.8982C98.3506 17.8982 98.8761 18.0565 99.2762 18.3714C99.6799 18.6881 99.8956 19.1231 99.9235 19.6798H98.3576C98.3471 19.4902 98.2775 19.3388 98.1488 19.2275C98.0183 19.1161 97.8513 19.0604 97.6477 19.0604C97.4702 19.0604 97.3293 19.1074 97.2232 19.1996C97.1153 19.2936 97.0631 19.4276 97.0631 19.6033C97.0631 19.7947 97.1536 19.9443 97.3345 20.0557C97.5155 20.1635 97.7956 20.2784 98.1766 20.4036C98.5611 20.5341 98.8743 20.6594 99.1162 20.7795C99.3563 20.896 99.5633 21.0683 99.7356 21.2945C99.9113 21.5172 100 21.8077 100 22.1644C100 22.5037 99.913 22.8116 99.7425 23.09C99.5703 23.3649 99.3197 23.5842 98.9909 23.7512C98.6655 23.9147 98.281 23.9948 97.8356 23.9948Z" fill="white"/>
</svg>
